<svg xmlns="http://www.w3.org/2000/svg" xmlns:xlink="http://www.w3.org/1999/xlink" width="168" height="65" viewBox="0 0 168 65">
    <defs>
        <path id="cfj0fvazxa" d="M156.413 54.083L167.394 54.083 167.394 62.976 156.413 62.976z"/>
    </defs>
    <g fill="none" fill-rule="evenodd">
        <g>
            <g>
                <g transform="translate(-146 -40) translate(146 40) translate(0 .68)">
                    <path fill="#FFF" d="M0 51.64L1.229 51.64 3.43 56.262 3.454 56.262 5.631 51.64 6.806 51.64 6.806 60.763 5.924 60.763 5.924 52.946 5.898 52.946 3.737 57.59 3.059 57.59.887 52.957.842 52.957.842 60.763 0 60.763 0 51.64M12.22 57.025v-.7c0-.77-.348-1.536-1.412-1.536-.983 0-1.39.778-1.39 1.535v.701h2.801zm-3.714 1.537v-1.983c0-1.6 1.022-2.483 2.365-2.483 1.385 0 2.202.872 2.202 2.304v1.28H9.418v.894c0 1.101.572 1.586 1.636 1.586.729 0 1.229-.265 1.583-.472l.336.603c-.59.46-1.308.625-2.048.625-1.421 0-2.419-.703-2.419-2.354zM14.659 54.25h.844v1.127h.013c.398-.885 1.205-1.28 2.037-1.28.878 0 1.443.6 1.587 1.268h.01c.423-.873 1.202-1.269 2.036-1.269.97 0 1.624.703 1.624 1.65v5.017h-.895v-4.759c0-.883-.435-1.19-1.128-1.19-.754 0-1.584.728-1.6 1.676v4.273h-.893V55.94c-.012-.819-.451-1.126-1.126-1.126-.78 0-1.612.779-1.612 1.752v4.197h-.897v-6.512M28.333 58.87v-2.816c0-.754-.407-1.24-1.254-1.24-.726 0-1.534.753-1.534 1.895v1.66c0 1.05.718 1.87 1.576 1.87.715 0 1.212-.462 1.212-1.37zm-2.851.818h-.025l-.015 1.075h-.793V51.64h.896v3.648h.04c.358-.82 1.176-1.205 1.829-1.205 1.225 0 1.815.897 1.815 1.921v2.827c0 1.343-.906 2.085-1.969 2.085-.678 0-1.535-.446-1.778-1.228zM34.345 57.025v-.7c0-.77-.342-1.536-1.403-1.536-.99 0-1.397.778-1.397 1.535v.701h2.8zm-3.708 1.537v-1.983c0-1.6 1.025-2.483 2.369-2.483 1.379 0 2.198.872 2.198 2.304v1.28h-3.66v.894c0 1.101.58 1.586 1.641 1.586.725 0 1.225-.265 1.582-.472l.336.603c-.588.46-1.308.625-2.05.625-1.419 0-2.416-.703-2.416-2.354zM36.787 54.25h.85v1.127h.01c.472-.974 1.1-1.202 1.843-1.202.127 0 .319.01.433.039v.803c-.243-.037-.433-.037-.54-.037-.853 0-1.686.499-1.696 1.689v4.094h-.9v-6.512M46.972 58.549v-2.174c0-.872-.424-1.576-1.444-1.576-1.04 0-1.42.743-1.42 1.639v2.124c0 .999.42 1.623 1.456 1.623 1.066 0 1.408-.715 1.408-1.636zm-3.762.025v-2.11c0-1.523.99-2.368 2.318-2.368 1.38 0 2.34.794 2.34 2.329v2.112c0 1.6-.984 2.38-2.318 2.38-1.393 0-2.34-.794-2.34-2.343zM49.992 55.003h-.998v-.74h.998V53.15c0-1.076.625-1.661 1.6-1.661.254 0 .508.024.753.09v.727c-.164-.05-.424-.063-.638-.063-.476 0-.822.243-.822.894v1.128h1.307v.74h-1.307v5.759h-.893v-5.76M56.348 59.599v-4.605h-1.062v-.718h1.062V52.38h.896v1.896h1.672v.718h-1.672v4.324c0 .523.268.755.844.755.254 0 .55-.065.782-.143v.743c-.396.142-.768.203-1.08.203-.688 0-1.442-.242-1.442-1.277M60.249 51.64h.897v3.685h.025c.383-.845 1.164-1.229 1.969-1.229 1.025 0 1.637.743 1.637 1.664v5.003h-.894v-4.735c0-.881-.383-1.214-1.125-1.214-.782 0-1.612.803-1.612 1.79v4.159h-.897V51.64M70.086 57.025v-.7c0-.77-.343-1.536-1.406-1.536-.985 0-1.396.778-1.396 1.535v.701h2.802zm-3.71 1.537v-1.983c0-1.6 1.026-2.483 2.37-2.483 1.378 0 2.197.872 2.197 2.304v1.28h-3.659v.894c0 1.101.575 1.586 1.636 1.586.73 0 1.23-.265 1.587-.472l.336.603c-.589.46-1.308.625-2.051.625-1.418 0-2.415-.703-2.415-2.354zM74.255 59.727l.626-.654c.692.628 1.243 1.01 2.368 1.01 1.086 0 1.74-.675 1.74-1.573 0-1.01-.7-1.445-1.418-1.787l-1.151-.552c-1.075-.5-1.715-1.268-1.715-2.304 0-1.331 1.01-2.394 2.598-2.394 1.008 0 1.918.322 2.519 1.05l-.6.601c-.59-.55-1.115-.846-1.984-.846-.896 0-1.561.49-1.561 1.485 0 .745.436 1.166 1.304 1.574l1.062.514c1.193.574 1.907 1.33 1.907 2.507 0 1.507-1.164 2.558-2.803 2.558-1.226 0-2.201-.42-2.892-1.189M81.572 51.64L82.534 51.64 86.499 58.857 86.524 58.857 86.524 51.64 87.368 51.64 87.368 60.763 86.539 60.763 82.444 53.226 82.416 53.226 82.416 60.763 81.572 60.763 81.572 51.64M89.108 58.23V54.2c0-1.64 1.215-2.712 2.984-2.712 1.631 0 2.721.972 2.721 2.315v.705h-.853v-.512c0-.974-.619-1.718-1.913-1.718-1.288 0-1.98.821-1.98 1.973v3.863c0 1.407.831 1.996 2.025 1.996 1.196 0 1.868-.679 1.868-1.624v-.603h.853v.679c0 1.433-1.09 2.354-2.721 2.354-1.72 0-2.984-.882-2.984-2.687M96.028 57.333L98.687 57.333 98.687 56.618 96.028 56.618zM100.172 51.64L101.119 51.64 101.119 59.944 105.124 59.944 105.124 60.763 100.172 60.763 100.172 51.64M109.806 58.6v-1.01H108.7c-.754 0-1.607.243-1.607 1.33 0 .882.546 1.293 1.176 1.293.832 0 1.536-.68 1.536-1.612zm-3.634.448c0-1.522 1.332-2.073 2.394-2.073h1.24v-1.11c0-.77-.515-1.115-1.279-1.115-.69 0-1.345.332-1.345 1.036v.372h-.806v-.398c0-1.1 1.01-1.664 2.254-1.664 1.15 0 2.083.525 2.083 1.73v3.287c0 .498.054 1.328.065 1.65h-.833l-.05-1.036h-.026c-.425.932-1.318 1.179-1.908 1.179-.946 0-1.79-.615-1.79-1.858zM111.775 54.251L112.735 54.251 114.194 59.548 114.204 59.548 115.726 54.251 116.569 54.251 114.575 60.776 113.707 60.776 111.775 54.251M120.957 58.6v-1.01h-1.098c-.758 0-1.615.243-1.615 1.33 0 .882.554 1.293 1.18 1.293.829 0 1.533-.68 1.533-1.612zm-3.63.448c0-1.522 1.328-2.073 2.39-2.073h1.24v-1.11c0-.77-.509-1.115-1.277-1.115-.692 0-1.342.332-1.342 1.036v.372h-.808v-.398c0-1.1 1.01-1.664 2.25-1.664 1.15 0 2.087.525 2.087 1.73v3.287c0 .498.051 1.328.06 1.65h-.828l-.05-1.036h-.027c-.424.932-1.317 1.179-1.906 1.179-.947 0-1.79-.615-1.79-1.858zM123.672 59.483V51.64h.897v7.689c0 .422.19.73.753.73.169 0 .393-.025.55-.051v.705c-.296.102-.578.124-.846.124-.857 0-1.354-.47-1.354-1.354M127.192 60.763h.893v-6.512h-.893v6.512zm0-7.626h.893V51.77h-.893v1.368zM129.975 54.25h.846v1.1h.011c.425-.87 1.203-1.254 2.036-1.254.986 0 1.637.743 1.637 1.664v5.003h-.897v-4.759c0-.87-.422-1.19-1.125-1.19-.78 0-1.609.779-1.609 1.752v4.197h-.9v-6.512M138.445 58.23v-3.98c0-1.652 1.237-2.777 2.98-2.777 1.665 0 2.79.972 2.79 2.315v.655h-.87v-.525c0-.948-.73-1.651-1.933-1.651-1.301 0-2.02.882-2.02 2.022v3.878c0 1.228.755 1.943 2.048 1.943 1.418 0 1.915-.781 1.915-1.726v-1.587h-1.904v-.754h2.804v2.455c0 1.42-1.104 2.418-2.83 2.418-1.7 0-2.98-.882-2.98-2.687M146.028 54.25h.849v1.127h.012c.47-.974 1.096-1.202 1.839-1.202.13 0 .323.01.436.039v.803c-.243-.037-.436-.037-.537-.037-.857 0-1.684.499-1.703 1.689v4.094h-.896v-6.512M153.913 58.549v-2.174c0-.872-.426-1.576-1.447-1.576-1.04 0-1.424.743-1.424 1.639v2.124c0 .999.427 1.623 1.458 1.623 1.063 0 1.413-.715 1.413-1.636zm-3.767.025v-2.11c0-1.523.987-2.368 2.32-2.368 1.378 0 2.34.794 2.34 2.329v2.112c0 1.6-.986 2.38-2.315 2.38-1.394 0-2.345-.794-2.345-2.343z"/>
                    <path fill="#FFF" d="M156.413 59.252v-5.001h.897v4.732c0 .872.387 1.202 1.114 1.202.845 0 1.627-.79 1.627-1.778v-4.156h.896v6.512h-.808l-.039-1.115h-.023c-.336.793-1.141 1.268-1.984 1.268-.985 0-1.68-.678-1.68-1.664M166.5 58.882v-2.789c0-.704-.361-1.279-1.258-1.279-.857 0-1.536.794-1.536 1.931v1.574c0 1.1.694 1.92 1.614 1.92.68 0 1.18-.437 1.18-1.357zm-3.687-4.631h.844v1.074h.023c.398-.868 1.206-1.242 1.869-1.242 1.204 0 1.845.858 1.845 1.882v2.815c0 1.33-.78 2.136-1.973 2.136-.654 0-1.432-.396-1.687-1.152h-.028v3.277h-.893v-8.79zM12.968.766L0 34.871 7.224 34.871 17.087 7.814 27.146 34.871 34.838 34.871 21.555.766 12.968.766M41.676 6.158L32.242 6.158 30.178.765 58.566.765 58.566 6.158 48.585 6.158 48.585 34.871 41.676 34.871 41.676 6.158M69.681 18.971L69.681 34.871 62.766 34.871 62.766.766 69.681.766 69.681 15.392 82.264.766 90.574.766 76.431 16.743 91.155 34.871 82.417 34.871 69.681 18.971M95.039 34.872L101.95 34.872 101.95.766 95.039.766zM131.856 25.709L131.856.766 138.192.766 138.192 34.872 129.874 34.872 116.165 9.89 116.165 34.872 109.828 34.872 109.828.766 118.224.766 131.856 25.709M164.985 7.356c-2.176-1.123-4.545-1.852-7.497-1.852-2.402 0-5.828 1.078-5.828 4.35 0 3.268 4.009 4.151 7.775 5.66 4.538 1.805 7.959 4.152 7.959 9.696 0 7.124-5.824 10.78-13.357 10.78-3.849 0-7.224-.887-9.752-2.159l.853-6.196c2.33 1.5 5.555 2.62 8.781 2.62 3.569 0 6.206-1.39 6.206-4.466 0-3.084-3.722-4.197-7.452-5.697-3.965-1.58-8.197-3.584-8.197-9.51C144.476 3.5 150.85 0 157.102 0c3.606 0 6.289.729 8.622 1.842l-.739 5.514"/>
                </g>
            </g>
        </g>
    </g>
</svg>
